{"title":"I.Give.It.A.Year.2013.SWESUB.720p.BluRay.x264-KraBBa","uid":8655354,"size":4699073915,"categoryP":"video","categoryS":"hd___movies","magnet":"?xt=urn:btih:364579d5c17f7bed1202a7bf54ff5c63787322d3&amp;dn=I.Give.It.A.Year.2013.SWESUB.720p.BluRay.x264-KraBBa&amp;tr=udp%3A%2F%2Ftracker.openbittorrent.com%3A80&amp;tr=udp%3A%2F%2Fopen.demonii.com%3A1337&amp;tr=udp%3A%2F%2Ftracker.coppersurfer.tk%3A6969&amp;tr=udp%3A%2F%2Fexodus.desync.com%3A6969","seeders":4,"leechers":0,"uploader":"Robblowe","files":-1,"time":1373205132,"description":"General\nComplete name                  : KraBBa-igyear.mkv\nFormat                         : Matroska\nFormat version                 : Version 4 / Version 2\nFile size                      : 4.38 GiB\nDuration                       : 1h 37mn\nOverall bit rate               : 6 435 Kbps\nEncoded date                   : UTC 2013-07-07 04:04:34\nWriting library                : libebml v1.3.0 + libmatroska v1.4.0\n\nVideo\nID                             : 1\nFormat                         : AVC\nFormat/Info                    : Advanced Video Codec\nFormat profile                 : &lt;a class=&quot;__cf_email__&quot; href=&quot;/cdn-cgi/l/email-protection&quot; data-cfemail=&quot;3179585659717d051f00&quot;&gt;[email&amp;#160;protected]&lt;/a&gt;&lt;script cf-hash='f9e31' type=&quot;text/javascript&quot;&gt;\n/* &lt;![CDATA[ */!function(){try{var t=&quot;currentScript&quot;in document?document.currentScript:function(){for(var t=document.getElementsByTagName(&quot;script&quot;),e=t.length;e--;)if(t[e].getAttribute(&quot;cf-hash&quot;))return t[e]}();if(t&amp;&amp;t.previousSibling){var e,r,n,i,c=t.previousSibling,a=c.getAttribute(&quot;data-cfemail&quot;);if(a){for(e=&quot;&quot;,r=parseInt(a.substr(0,2),16),n=2;a.length-n;n+=2)i=parseInt(a.substr(n,2),16)^r,e+=String.fromCharCode(i);e=document.createTextNode(e),c.parentNode.replaceChild(e,c)}}}catch(u){}}();/* ]]&gt; */&lt;/script&gt;\nFormat settings, CABAC         : Yes\nFormat settings, ReFrames      : 5 frames\nCodec ID                       : V_MPEG4/ISO/AVC\nDuration                       : 1h 37mn\nBit rate                       : 5 660 Kbps\nWidth                          : 1 280 pixels\nHeight                         : 528 pixels\nDisplay aspect ratio           : 2.40:1\nFrame rate mode                : Constant\nFrame rate                     : 23.976 fps\nColor space                    : YUV\nChroma subsampling             : 4:2:0\nBit depth                      : 8 bits\nScan type                      : Progressive\nBits/(Pixel*Frame)             : 0.349\nStream size                    : 3.77 GiB (86%)\nWriting library                : x264 core 133 r2334 a3ac64b\nDefault                        : Yes\nForced                         : No\n\nAudio\nID                             : 2\nFormat                         : DTS\nFormat/Info                    : Digital Theater Systems\nMode                           : 16\nFormat settings, Endianness    : Big\nCodec ID                       : A_DTS\nDuration                       : 1h 37mn\nBit rate mode                  : Constant\nBit rate                       : 768 Kbps\nChannel(s)                     : 6 channels\nChannel positions              : Front: L C R, Side: L R, LFE\nSampling rate                  : 48.0 KHz\nBit depth                      : 24 bits\nCompression mode               : Lossy\nStream size                    : 535 MiB (12%)\nLanguage                       : English\nDefault                        : Yes\nForced                         : No\n\nText #1\nID                             : 3\nFormat                         : UTF-8\nCodec ID                       : S_TEXT/UTF8\nCodec ID/Info                  : UTF-8 Plain Text\nLanguage                       : Swedish\nDefault                        : Yes\nForced                         : No\n\nText #2\nID                             : 4\nFormat                         : VobSub\nMuxing mode                    : zlib\nCodec ID                       : S_VOBSUB\nCodec ID/Info                  : The same subtitle format used on DVDs\nLanguage                       : English\nDefault                        : No\nForced                         : No\n","torrent":{"xt":"urn:btih:364579d5c17f7bed1202a7bf54ff5c63787322d3","amp;dn":"I.Give.It.A.Year.2013.SWESUB.720p.BluRay.x264-KraBBa","amp;tr":["udp%3A%2F%2Ftracker.openbittorrent.com%3A80","udp%3A%2F%2Fopen.demonii.com%3A1337","udp%3A%2F%2Ftracker.coppersurfer.tk%3A6969","udp%3A%2F%2Fexodus.desync.com%3A6969"],"infoHash":"364579d5c17f7bed1202a7bf54ff5c63787322d3","infoHashBuffer":{"type":"Buffer","data":[54,69,121,213,193,127,123,237,18,2,167,191,84,255,92,99,120,115,34,211]},"announce":[],"urlList":[]}}